<svg xmlns="http://www.w3.org/2000/svg" version="1.1" xmlns:xlink="http://www.w3.org/1999/xlink" xmlns:svgjs="http://svgjs.dev/svgjs" width="1500" height="1500" viewBox="0 0 1500 1500"><rect width="1500" height="1500" fill="#023e8a"></rect><g transform="matrix(0.6666666666666666,0,0,0.6666666666666666,249.39393939393938,435.99032258064517)"><svg viewBox="0 0 396 248" data-background-color="#023e8a" preserveAspectRatio="xMidYMid meet" height="939" width="1500" xmlns="http://www.w3.org/2000/svg" xmlns:xlink="http://www.w3.org/1999/xlink"><g id="tight-bounds" transform="matrix(1,0,0,1,0.2400000000000091,0.4000000000000057)"><svg viewBox="0 0 395.52 247.2" height="247.2" width="395.52"><g><svg></svg></g><g><svg viewBox="0 0 395.52 247.2" height="247.2" width="395.52"><g transform="matrix(1,0,0,1,75.54432,75.62161590857143)"><svg viewBox="0 0 244.43135999999998 95.95676818285713" height="95.95676818285713" width="244.43135999999998"><g><svg viewBox="0 0 244.43135999999998 95.95676818285713" height="95.95676818285713" width="244.43135999999998"><g><svg viewBox="0 0 244.43135999999998 95.95676818285713" height="95.95676818285713" width="244.43135999999998"><g><svg viewBox="0 0 244.43135999999998 95.95676818285713" height="95.95676818285713" width="244.43135999999998"><g id="textblocktransform"><svg viewBox="0 0 244.43135999999998 95.95676818285713" height="95.95676818285713" width="244.43135999999998" id="textblock"><g><svg viewBox="0 0 244.43135999999998 95.95676818285713" height="95.95676818285713" width="244.43135999999998"><g transform="matrix(1,0,0,1,0,0)"><svg width="244.43135999999998" viewBox="1.44 -33.54 85.44 33.54" height="95.95676818285713" data-palette-color="#ffffff"><path d="M42.26-2.15L42.26 0 29.64 0 29.64-2.15 32.3-2.34Q32.84-2.39 33.12-2.73 33.4-3.08 33.4-3.44L33.4-3.44 33.4-31.01 21.9 0 19.41 0 8.3-30.54 8.3-3.44Q8.3-3.08 8.58-2.73 8.86-2.39 9.4-2.34L9.4-2.34 12.26-2.15 12.26 0 1.44 0 1.44-2.15 4.3-2.34Q4.83-2.39 5.09-2.73 5.35-3.08 5.35-3.44L5.35-3.44 5.35-30.1Q5.35-30.47 5.09-30.82 4.83-31.18 4.3-31.2L4.3-31.2 1.44-31.4 1.44-33.54 12.65-33.54 12.65-32.2 21.7-7.64 30.76-32.06 30.76-33.54 42.26-33.54 42.26-31.4 39.55-31.2Q39.01-31.18 38.73-30.82 38.45-30.47 38.45-30.1L38.45-30.1 38.45-3.44Q38.45-3.08 38.73-2.73 39.01-2.39 39.55-2.34L39.55-2.34 42.26-2.15ZM54.44-3.86L54.44-3.86Q54.44-2.25 53.33-1.12 52.22 0 50.61 0L50.61 0Q48.97 0 47.86-1.12 46.75-2.25 46.75-3.86L46.75-3.86Q46.75-5.47 47.86-6.58 48.97-7.69 50.61-7.69L50.61-7.69Q52.22-7.69 53.33-6.58 54.44-5.47 54.44-3.86ZM74.58-2.15L74.58 0 61.4 0 61.4-2.15 64.37-2.34Q64.91-2.39 65.17-2.73 65.42-3.08 65.42-3.44L65.42-3.44 65.42-30.1Q65.42-30.47 65.17-30.8 64.91-31.13 64.37-31.15L64.37-31.15 61.4-31.35 61.4-33.54 74.58-33.54 74.58-31.35 71.53-31.15Q71.02-31.13 70.75-30.8 70.48-30.47 70.48-30.1L70.48-30.1 70.48-3.44Q70.48-3.08 70.75-2.73 71.02-2.39 71.53-2.34L71.53-2.34 74.58-2.15ZM86.88-3.86L86.88-3.86Q86.88-2.25 85.77-1.12 84.66 0 83.05 0L83.05 0Q81.41 0 80.3-1.12 79.19-2.25 79.19-3.86L79.19-3.86Q79.19-5.47 80.3-6.58 81.41-7.69 83.05-7.69L83.05-7.69Q84.66-7.69 85.77-6.58 86.88-5.47 86.88-3.86Z" opacity="1" transform="matrix(1,0,0,1,0,0)" fill="#ffffff" class="wordmark-text-0" data-fill-palette-color="primary" id="text-0"></path></svg></g></svg></g></svg></g></svg></g><g></g></svg></g></svg></g></svg></g><g><path d="M98.021 52.969A122.216 122.216 0 0 1 297.499 52.969L288.846 52.969A113.562 113.562 0 0 0 106.674 52.969L98.021 52.969M98.021 194.231A122.216 122.216 0 0 0 297.499 194.231L288.846 194.231A113.562 113.562 0 0 1 106.674 194.231L98.021 194.231" fill="#ffffff" stroke="transparent" data-fill-palette-color="tertiary"></path></g></svg></g><defs></defs></svg><rect width="395.52" height="247.2" fill="none" stroke="none" visibility="hidden"></rect></g></svg></g></svg>